<mxfile host="app.diagrams.net" modified="2021-02-23T22:39:18.644Z" agent="5.0 (X11)" etag="CdD_1PirEzQyFstKzh_v" version="14.3.2" type="github">
  <diagram id="eFPID6OnWShmRLcnE76W" name="Page-1">
    <mxGraphModel dx="1032" dy="558" grid="1" gridSize="10" guides="1" tooltips="1" connect="1" arrows="1" fold="1" page="1" pageScale="1" pageWidth="850" pageHeight="1100" math="0" shadow="0">
      <root>
        <mxCell id="0" />
        <mxCell id="1" parent="0" />
        <mxCell id="MNPQgemknhLAKgl1HpcJ-1" value="" style="rounded=0;whiteSpace=wrap;html=1;" vertex="1" parent="1">
          <mxGeometry x="80" y="130" width="120" height="360" as="geometry" />
        </mxCell>
        <mxCell id="MNPQgemknhLAKgl1HpcJ-2" value="" style="rounded=1;whiteSpace=wrap;html=1;" vertex="1" parent="1">
          <mxGeometry x="85" y="140" width="110" height="50" as="geometry" />
        </mxCell>
        <mxCell id="MNPQgemknhLAKgl1HpcJ-3" value="" style="rounded=1;whiteSpace=wrap;html=1;" vertex="1" parent="1">
          <mxGeometry x="85" y="320" width="110" height="50" as="geometry" />
        </mxCell>
        <mxCell id="MNPQgemknhLAKgl1HpcJ-4" value="" style="rounded=1;whiteSpace=wrap;html=1;" vertex="1" parent="1">
          <mxGeometry x="85" y="260" width="110" height="50" as="geometry" />
        </mxCell>
        <mxCell id="MNPQgemknhLAKgl1HpcJ-5" value="" style="rounded=1;whiteSpace=wrap;html=1;" vertex="1" parent="1">
          <mxGeometry x="85" y="200" width="110" height="50" as="geometry" />
        </mxCell>
        <mxCell id="MNPQgemknhLAKgl1HpcJ-6" value="" style="rounded=1;whiteSpace=wrap;html=1;" vertex="1" parent="1">
          <mxGeometry x="85" y="380" width="110" height="50" as="geometry" />
        </mxCell>
        <mxCell id="MNPQgemknhLAKgl1HpcJ-7" value="" style="rounded=1;whiteSpace=wrap;html=1;" vertex="1" parent="1">
          <mxGeometry x="85" y="440" width="110" height="40" as="geometry" />
        </mxCell>
        <mxCell id="MNPQgemknhLAKgl1HpcJ-8" value="&lt;font style=&quot;font-size: 21px&quot;&gt;RAM Memory&lt;br&gt;&lt;/font&gt;" style="text;html=1;strokeColor=none;fillColor=none;align=center;verticalAlign=middle;whiteSpace=wrap;rounded=0;" vertex="1" parent="1">
          <mxGeometry x="75" y="60" width="130" height="50" as="geometry" />
        </mxCell>
        <mxCell id="MNPQgemknhLAKgl1HpcJ-10" value="&lt;font style=&quot;font-size: 21px&quot;&gt;Page&lt;/font&gt;" style="text;html=1;strokeColor=none;fillColor=none;align=center;verticalAlign=middle;whiteSpace=wrap;rounded=0;strokeWidth=3;fontStyle=1" vertex="1" parent="1">
          <mxGeometry x="370" y="180" width="100" height="40" as="geometry" />
        </mxCell>
        <mxCell id="MNPQgemknhLAKgl1HpcJ-11" value="" style="endArrow=classic;html=1;entryX=1.008;entryY=0.075;entryDx=0;entryDy=0;entryPerimeter=0;" edge="1" parent="1" source="MNPQgemknhLAKgl1HpcJ-10" target="MNPQgemknhLAKgl1HpcJ-1">
          <mxGeometry width="50" height="50" relative="1" as="geometry">
            <mxPoint x="400" y="310" as="sourcePoint" />
            <mxPoint x="450" y="260" as="targetPoint" />
            <Array as="points">
              <mxPoint x="400" y="200" />
              <mxPoint x="300" y="170" />
            </Array>
          </mxGeometry>
        </mxCell>
        <mxCell id="MNPQgemknhLAKgl1HpcJ-13" value="&lt;b&gt;&lt;font style=&quot;font-size: 16px&quot;&gt;&lt;span class=&quot;ILfuVd NA6bn&quot;&gt;&lt;span class=&quot;hgKElc&quot;&gt;Each page frame is 4 KB&lt;/span&gt;&lt;/span&gt;&lt;/font&gt;&lt;/b&gt;" style="rounded=0;whiteSpace=wrap;html=1;strokeWidth=1;" vertex="1" parent="1">
          <mxGeometry x="475" y="180" width="190" height="60" as="geometry" />
        </mxCell>
        <mxCell id="MNPQgemknhLAKgl1HpcJ-14" value="&lt;div style=&quot;font-size: 18px&quot;&gt;&lt;font style=&quot;font-size: 18px&quot;&gt;&lt;b&gt;8GB RAM = 8 000 000 KB (in decimal)&lt;/b&gt;&lt;/font&gt;&lt;/div&gt;&lt;div style=&quot;font-size: 18px&quot;&gt;&lt;font style=&quot;font-size: 18px&quot;&gt;&lt;b&gt;8 000 000 KB / 4 KB = 2 000 000 Pages&lt;br&gt;&lt;/b&gt;&lt;/font&gt;&lt;/div&gt;" style="text;html=1;strokeColor=none;fillColor=none;align=center;verticalAlign=middle;whiteSpace=wrap;rounded=0;" vertex="1" parent="1">
          <mxGeometry x="400" y="280" width="340" height="140" as="geometry" />
        </mxCell>
      </root>
    </mxGraphModel>
  </diagram>
</mxfile>
